<svg id="svg" xmlns="http://www.w3.org/2000/svg" xmlns:xlink="http://www.w3.org/1999/xlink" width="400" height="307.55555555555554" viewBox="0, 0, 400,307.55555555555554"><g id="svgg"><path id="path0" d="M14.671 4.243 C 12.663 4.977,11.873 7.552,12.546 11.177 C 12.810 12.598,12.894 13.974,12.733 14.235 C 12.571 14.496,12.688 18.214,12.992 22.498 C 13.707 32.582,15.244 37.371,22.322 51.556 C 28.656 64.248,30.722 67.075,43.508 80.534 C 47.025 84.237,47.054 84.295,44.741 82.953 C 38.634 79.411,30.460 73.667,26.786 70.337 C 16.077 60.631,16.480 60.926,14.448 61.307 C 6.639 62.772,11.059 81.385,22.461 95.055 C 25.426 98.610,27.852 101.736,27.852 102.004 C 27.852 102.271,29.918 104.030,32.444 105.912 C 34.970 107.794,37.303 109.544,37.629 109.801 C 43.178 114.177,55.497 122.156,59.843 124.189 C 62.944 125.640,66.548 127.343,67.852 127.974 L 70.222 129.121 67.259 128.803 C 65.630 128.628,63.368 128.201,62.234 127.855 C 61.100 127.509,59.283 127.259,58.197 127.300 C 57.110 127.341,54.838 126.849,53.148 126.206 C 48.621 124.486,45.089 124.159,42.541 125.224 C 39.932 126.314,37.889 129.022,39.108 129.776 C 39.557 130.053,39.865 131.176,39.821 132.368 C 39.774 133.609,40.136 134.866,40.702 135.432 C 41.230 135.961,42.653 137.904,43.863 139.752 C 46.337 143.530,51.259 148.772,54.815 151.416 C 56.119 152.385,57.325 153.365,57.496 153.594 C 60.847 158.066,82.225 163.066,98.518 163.189 C 103.651 163.228,107.851 163.307,107.852 163.366 C 107.855 164.574,92.774 170.667,89.779 170.667 C 88.654 170.667,87.161 172.253,87.130 173.481 C 87.120 173.889,87.511 174.222,88.000 174.222 C 88.636 174.222,88.889 174.870,88.889 176.494 C 88.889 180.947,98.017 185.351,110.246 186.799 L 117.037 187.603 113.558 189.209 C 111.645 190.092,109.902 190.815,109.686 190.815 C 109.470 190.815,108.847 191.569,108.303 192.491 C 105.523 197.197,112.165 207.360,120.593 211.294 C 127.783 214.650,137.554 218.691,140.177 219.392 C 142.657 220.055,142.715 220.130,143.379 223.501 C 144.296 228.165,146.070 233.173,147.532 235.226 C 149.727 238.309,148.100 241.603,142.943 244.515 C 141.406 245.382,139.215 246.680,138.074 247.398 C 136.933 248.116,134.933 249.047,133.630 249.466 C 132.326 249.885,130.993 250.430,130.667 250.675 C 130.341 250.921,129.141 251.315,128.000 251.550 C 126.859 251.786,123.126 252.748,119.704 253.688 C 116.281 254.628,110.379 255.923,106.586 256.566 C 102.794 257.209,97.594 258.270,95.031 258.924 C 92.468 259.579,87.170 260.671,83.259 261.350 C 58.806 265.600,53.623 267.758,54.817 273.194 C 55.469 276.162,60.757 280.273,64.944 281.067 C 65.953 281.258,67.686 282.321,68.796 283.428 C 70.782 285.408,76.506 288.000,78.893 288.000 C 79.595 288.000,80.237 288.481,80.408 289.136 C 80.994 291.377,88.869 293.918,95.244 293.923 C 99.362 293.926,99.559 293.991,100.409 295.636 C 103.448 301.513,109.023 303.417,117.194 301.371 C 120.986 300.422,124.953 299.664,131.556 298.627 C 134.000 298.243,137.733 297.442,139.852 296.846 C 141.970 296.250,146.104 295.236,149.037 294.594 C 157.812 292.671,165.964 290.375,168.363 289.151 C 169.604 288.518,170.917 288.000,171.280 288.000 C 171.644 288.000,173.740 286.950,175.937 285.666 C 180.378 283.073,178.741 283.139,190.815 285.060 C 193.696 285.519,198.282 285.638,203.852 285.399 C 234.943 284.067,237.465 283.882,245.630 282.336 C 250.193 281.472,255.851 280.416,258.204 279.990 C 262.131 279.280,263.652 278.741,266.963 276.888 C 267.615 276.523,272.015 275.112,276.741 273.753 C 288.861 270.267,296.890 265.958,312.593 254.514 C 314.874 252.851,318.200 250.605,319.983 249.522 C 325.787 245.998,330.994 241.237,342.066 229.333 C 353.161 217.404,363.204 212.317,378.728 210.763 C 387.323 209.902,387.825 209.559,387.337 204.883 C 386.537 197.230,383.887 193.866,377.395 192.262 C 370.879 190.653,368.000 189.565,368.000 188.713 C 368.000 188.261,366.842 186.588,365.427 184.994 C 364.011 183.401,362.478 181.584,362.019 180.958 C 359.197 177.107,350.518 172.419,344.651 171.577 L 341.746 171.160 344.058 169.831 C 346.635 168.350,356.278 161.830,356.741 161.256 C 357.303 160.559,364.747 154.320,367.407 152.316 C 375.961 145.874,381.763 137.450,389.667 120.000 C 393.500 111.535,394.540 98.429,393.123 76.444 C 392.643 68.997,392.503 67.537,392.159 66.370 C 392.015 65.881,391.667 64.148,391.385 62.519 C 391.103 60.889,390.841 59.422,390.803 59.259 C 390.412 57.610,389.039 52.923,388.087 49.986 C 387.438 47.982,386.769 45.582,386.600 44.652 C 385.829 40.395,379.193 30.222,377.187 30.222 C 372.113 30.222,371.250 32.431,372.436 42.370 C 372.697 44.554,372.627 45.074,372.171 44.346 C 370.208 41.214,362.086 35.484,359.869 35.667 L 357.630 35.852 357.670 38.815 C 357.704 41.304,358.719 46.867,360.051 51.852 C 360.277 52.700,359.834 52.448,358.492 50.963 C 352.065 43.853,349.514 42.018,346.667 42.459 C 343.501 42.950,342.708 47.801,344.889 53.333 C 346.350 57.040,346.359 57.330,344.974 56.077 C 342.981 54.274,337.196 52.605,334.395 53.025 C 332.267 53.344,330.681 54.519,332.378 54.519 C 332.668 54.519,333.087 55.519,333.309 56.741 C 333.531 57.963,334.719 61.496,335.948 64.593 C 339.215 72.819,339.406 73.799,337.501 72.551 C 335.426 71.191,323.156 68.077,321.505 68.491 C 319.454 69.006,318.550 79.668,320.115 84.890 L 320.822 87.251 317.492 90.292 C 312.271 95.061,307.488 104.329,304.913 114.667 C 303.520 120.256,302.960 121.337,299.847 124.444 C 293.954 130.326,291.407 133.648,281.348 148.565 C 277.722 153.942,272.438 158.752,266.462 162.116 L 261.813 164.732 260.783 163.461 C 259.943 162.423,259.753 162.369,259.753 163.168 C 259.753 163.707,259.975 164.148,260.247 164.148 C 261.366 164.148,260.570 165.456,257.592 168.505 C 253.839 172.350,252.359 172.416,248.593 168.909 C 247.289 167.696,244.489 165.419,242.370 163.850 C 235.829 159.006,221.869 144.358,216.344 136.541 C 213.600 132.658,210.248 128.148,208.896 126.519 C 205.597 122.543,203.163 118.893,201.190 114.963 C 200.290 113.170,197.643 108.770,195.308 105.185 C 192.974 101.600,189.627 96.446,187.871 93.732 C 181.506 83.892,174.076 79.350,163.005 78.530 C 161.841 78.444,160.089 78.191,159.111 77.967 C 151.959 76.334,145.398 75.158,137.481 74.090 C 128.215 72.841,122.473 71.488,117.037 69.273 C 115.407 68.609,109.057 66.361,102.925 64.277 C 96.793 62.193,88.393 58.969,84.258 57.112 C 80.124 55.255,73.517 52.468,69.576 50.920 C 65.636 49.373,60.272 47.015,57.656 45.683 C 55.040 44.350,52.715 43.259,52.489 43.259 C 52.263 43.259,48.443 40.543,44.001 37.223 C 30.951 27.471,27.210 23.049,21.239 10.313 C 17.963 3.326,17.741 3.121,14.671 4.243 " stroke="none" fill="#fff" fill-rule="evenodd"></path></g></svg>