<svg width="70" height="32" viewBox="0 0 70 32" fill="none" xmlns="http://www.w3.org/2000/svg">
<path d="M12.096 22.336V25H1.932V7.648H5.16V22.336H12.096ZM30.5394 16.324C30.5394 17.596 30.3274 18.776 29.9034 19.864C29.4874 20.944 28.8954 21.88 28.1274 22.672C27.3594 23.464 26.4354 24.084 25.3554 24.532C24.2754 24.972 23.0754 25.192 21.7554 25.192C20.4434 25.192 19.2474 24.972 18.1674 24.532C17.0874 24.084 16.1594 23.464 15.3834 22.672C14.6154 21.88 14.0194 20.944 13.5954 19.864C13.1714 18.776 12.9594 17.596 12.9594 16.324C12.9594 15.052 13.1714 13.876 13.5954 12.796C14.0194 11.708 14.6154 10.768 15.3834 9.976C16.1594 9.184 17.0874 8.568 18.1674 8.128C19.2474 7.68 20.4434 7.456 21.7554 7.456C22.6354 7.456 23.4634 7.56 24.2394 7.768C25.0154 7.968 25.7274 8.256 26.3754 8.632C27.0234 9 27.6034 9.452 28.1154 9.988C28.6354 10.516 29.0754 11.108 29.4354 11.764C29.7954 12.42 30.0674 13.132 30.2514 13.9C30.4434 14.668 30.5394 15.476 30.5394 16.324ZM27.2394 16.324C27.2394 15.372 27.1114 14.52 26.8554 13.768C26.5994 13.008 26.2354 12.364 25.7634 11.836C25.2914 11.308 24.7154 10.904 24.0354 10.624C23.3634 10.344 22.6034 10.204 21.7554 10.204C20.9074 10.204 20.1434 10.344 19.4634 10.624C18.7914 10.904 18.2154 11.308 17.7354 11.836C17.2634 12.364 16.8994 13.008 16.6434 13.768C16.3874 14.52 16.2594 15.372 16.2594 16.324C16.2594 17.276 16.3874 18.132 16.6434 18.892C16.8994 19.644 17.2634 20.284 17.7354 20.812C18.2154 21.332 18.7914 21.732 19.4634 22.012C20.1434 22.292 20.9074 22.432 21.7554 22.432C22.6034 22.432 23.3634 22.292 24.0354 22.012C24.7154 21.732 25.2914 21.332 25.7634 20.812C26.2354 20.284 26.5994 19.644 26.8554 18.892C27.1114 18.132 27.2394 17.276 27.2394 16.324ZM47.8782 16.3V23.32C46.9982 23.968 46.0582 24.444 45.0582 24.748C44.0662 25.044 43.0022 25.192 41.8662 25.192C40.4502 25.192 39.1662 24.972 38.0142 24.532C36.8702 24.092 35.8902 23.48 35.0742 22.696C34.2662 21.912 33.6422 20.976 33.2022 19.888C32.7622 18.8 32.5422 17.612 32.5422 16.324C32.5422 15.02 32.7542 13.824 33.1782 12.736C33.6022 11.648 34.2022 10.712 34.9782 9.928C35.7622 9.144 36.7102 8.536 37.8222 8.104C38.9342 7.672 40.1822 7.456 41.5662 7.456C42.2702 7.456 42.9262 7.512 43.5342 7.624C44.1502 7.736 44.7182 7.892 45.2382 8.092C45.7662 8.284 46.2462 8.52 46.6782 8.8C47.1102 9.08 47.5062 9.388 47.8662 9.724L46.9422 11.188C46.7982 11.42 46.6102 11.564 46.3782 11.62C46.1462 11.668 45.8942 11.608 45.6222 11.44C45.3582 11.288 45.0942 11.136 44.8302 10.984C44.5662 10.832 44.2702 10.7 43.9422 10.588C43.6222 10.476 43.2582 10.384 42.8502 10.312C42.4502 10.24 41.9862 10.204 41.4582 10.204C40.6022 10.204 39.8262 10.348 39.1302 10.636C38.4422 10.924 37.8542 11.336 37.3662 11.872C36.8782 12.408 36.5022 13.052 36.2382 13.804C35.9742 14.556 35.8422 15.396 35.8422 16.324C35.8422 17.316 35.9822 18.204 36.2622 18.988C36.5502 19.764 36.9502 20.424 37.4622 20.968C37.9822 21.504 38.6062 21.916 39.3342 22.204C40.0622 22.484 40.8742 22.624 41.7702 22.624C42.4102 22.624 42.9822 22.556 43.4862 22.42C43.9902 22.284 44.4822 22.1 44.9622 21.868V18.724H42.7782C42.5702 18.724 42.4062 18.668 42.2862 18.556C42.1742 18.436 42.1182 18.292 42.1182 18.124V16.3H47.8782ZM67.7362 16.324C67.7362 17.596 67.5242 18.776 67.1002 19.864C66.6842 20.944 66.0922 21.88 65.3242 22.672C64.5562 23.464 63.6322 24.084 62.5522 24.532C61.4722 24.972 60.2722 25.192 58.9522 25.192C57.6402 25.192 56.4442 24.972 55.3642 24.532C54.2842 24.084 53.3562 23.464 52.5802 22.672C51.8122 21.88 51.2162 20.944 50.7922 19.864C50.3682 18.776 50.1562 17.596 50.1562 16.324C50.1562 15.052 50.3682 13.876 50.7922 12.796C51.2162 11.708 51.8122 10.768 52.5802 9.976C53.3562 9.184 54.2842 8.568 55.3642 8.128C56.4442 7.68 57.6402 7.456 58.9522 7.456C59.8322 7.456 60.6602 7.56 61.4362 7.768C62.2122 7.968 62.9242 8.256 63.5722 8.632C64.2202 9 64.8002 9.452 65.3122 9.988C65.8322 10.516 66.2722 11.108 66.6322 11.764C66.9922 12.42 67.2642 13.132 67.4482 13.9C67.6402 14.668 67.7362 15.476 67.7362 16.324ZM64.4362 16.324C64.4362 15.372 64.3082 14.52 64.0522 13.768C63.7962 13.008 63.4322 12.364 62.9602 11.836C62.4882 11.308 61.9122 10.904 61.2322 10.624C60.5602 10.344 59.8002 10.204 58.9522 10.204C58.1042 10.204 57.3402 10.344 56.6602 10.624C55.9882 10.904 55.4122 11.308 54.9322 11.836C54.4602 12.364 54.0962 13.008 53.8402 13.768C53.5842 14.52 53.4562 15.372 53.4562 16.324C53.4562 17.276 53.5842 18.132 53.8402 18.892C54.0962 19.644 54.4602 20.284 54.9322 20.812C55.4122 21.332 55.9882 21.732 56.6602 22.012C57.3402 22.292 58.1042 22.432 58.9522 22.432C59.8002 22.432 60.5602 22.292 61.2322 22.012C61.9122 21.732 62.4882 21.332 62.9602 20.812C63.4322 20.284 63.7962 19.644 64.0522 18.892C64.3082 18.132 64.4362 17.276 64.4362 16.324Z" fill="#333333"/>
</svg>
