<svg width="25" height="15" viewBox="0 0 25 15" fill="none" xmlns="http://www.w3.org/2000/svg">
<path d="M0.689643 8.0498L10.1444 13.8713C10.4238 14.0338 10.7697 14.0047 11.031 14.0034C12.0762 13.998 12.0674 13.2004 12.0664 12.9983L12.0051 1.00141C12.0042 0.830569 12.0045 0.00160415 10.9594 0.00694871C10.6981 0.00828492 10.3519 -0.017143 10.0742 0.148188L0.679559 6.06597C-0.0916931 6.52492 0.0447209 7.06119 0.0447209 7.06119C0.0447209 7.06119 -0.0862624 7.59882 0.689643 8.0498Z" fill="#2B8DC0"/>
<path d="M12.7737 8.41455L22.6755 14.6237C22.9682 14.7972 23.3325 14.7696 23.6076 14.7705C24.7078 14.7739 24.7055 13.9342 24.7061 13.7215L24.745 1.09305C24.7456 0.913219 24.7531 0.0406573 23.653 0.037267C23.3779 0.0364194 23.0138 0.00666769 22.72 0.178299L12.7802 6.32629C11.9644 6.80273 12.1034 7.36837 12.1034 7.36837C12.1034 7.36837 11.9609 7.93315 12.7737 8.41455Z" fill="#2B8DC0"/>
</svg>
