<svg width="23" height="21" viewBox="0 0 23 21" fill="none" xmlns="http://www.w3.org/2000/svg">
<path  d="M16.5 5.62499C16.5 5.92167 16.412 6.21168 16.2472 6.45835C16.0823 6.70502 15.8481 6.89728 15.574 7.01081C15.2999 7.12435 14.9983 7.15405 14.7073 7.09617C14.4164 7.03829 14.1491 6.89543 13.9393 6.68565C13.7295 6.47588 13.5867 6.2086 13.5288 5.91763C13.4709 5.62666 13.5006 5.32506 13.6141 5.05097C13.7277 4.77688 13.9199 4.54261 14.1666 4.37779C14.4133 4.21297 14.7033 4.12499 15 4.12499C15.3978 4.12499 15.7793 4.28303 16.0606 4.56433C16.3419 4.84564 16.5 5.22717 16.5 5.62499ZM22.875 6.37499C22.875 6.5602 22.8292 6.74254 22.7418 6.90582C22.6544 7.0691 22.5281 7.20828 22.374 7.31099L20.625 8.47706V10.125C20.6219 12.8094 19.5542 15.383 17.6561 17.2811C15.7579 19.1793 13.1844 20.247 10.5 20.25H1.12496C0.91503 20.25 0.709287 20.1912 0.531003 20.0804C0.352719 19.9696 0.209007 19.811 0.116118 19.6228C0.02323 19.4345 -0.0151278 19.224 0.00538283 19.0151C0.0258935 18.8062 0.104454 18.6071 0.232181 18.4405L8.62496 7.49334V5.99999C8.62519 4.57919 9.12953 3.20455 10.0482 2.12072C10.9669 1.03689 12.2404 0.314188 13.642 0.0812273C15.0435 -0.151733 16.4823 0.120163 17.7022 0.848526C18.9221 1.57689 19.844 2.71447 20.3039 4.05881L22.374 5.43899C22.5281 5.54172 22.6544 5.6809 22.7418 5.84418C22.8292 6.00746 22.8749 6.18979 22.875 6.37499ZM19.7219 6.37499L18.7197 5.70674C18.4898 5.55348 18.3244 5.32099 18.2549 5.05359C18.0245 4.17118 17.4806 3.40291 16.7248 2.89252C15.969 2.38213 15.0532 2.16459 14.1486 2.28059C13.244 2.39659 12.4127 2.83819 11.8102 3.52278C11.2077 4.20736 10.8752 5.08802 10.875 5.99999V7.87499C10.875 8.12248 10.7933 8.36306 10.6427 8.55946L3.40506 18H10.5C12.5878 17.9976 14.5895 17.1672 16.0658 15.6909C17.5422 14.2145 18.3726 12.2129 18.375 10.125V7.87499C18.375 7.68979 18.4207 7.50746 18.5081 7.34417C18.5955 7.18089 18.7219 7.04171 18.876 6.93899L19.7219 6.37499ZM12.0594 10.7322C11.8226 10.5507 11.5234 10.4707 11.2276 10.5097C10.9318 10.5488 10.6637 10.7038 10.4821 10.9405L7.60721 14.6905C7.51603 14.8077 7.44893 14.9417 7.40977 15.0849C7.37062 15.228 7.36019 15.3775 7.37908 15.5248C7.39797 15.672 7.44581 15.814 7.51985 15.9427C7.59388 16.0714 7.69265 16.1841 7.81045 16.2744C7.92825 16.3647 8.06275 16.4308 8.20622 16.4689C8.34969 16.507 8.49927 16.5163 8.64636 16.4964C8.79344 16.4764 8.93512 16.4275 9.06323 16.3525C9.19133 16.2775 9.30333 16.1779 9.39277 16.0595L12.2677 12.3095C12.4492 12.0727 12.5293 11.7735 12.4902 11.4777C12.4511 11.1819 12.2962 10.9137 12.0594 10.7322Z" fill="white"/>
</svg>
