<svg width="36" height="36" viewBox="0 0 36 36" fill="none" xmlns="http://www.w3.org/2000/svg">
<path d="M31.2599 6.91505C30.4938 6.14856 29.5842 5.54052 28.583 5.12568C27.5818 4.71084 26.5087 4.49731 25.4249 4.49731C24.3412 4.49731 23.2681 4.71084 22.2669 5.12568C21.2657 5.54052 20.3561 6.14856 19.5899 6.91505L17.9999 8.50505L16.4099 6.91505C14.8624 5.36751 12.7635 4.49812 10.5749 4.49812C8.38638 4.49812 6.28747 5.36751 4.73993 6.91505C3.1924 8.46259 2.323 10.5615 2.323 12.7501C2.323 14.9386 3.1924 17.0375 4.73993 18.5851L6.32993 20.1751L17.9999 31.8451L29.6699 20.1751L31.2599 18.5851C32.0264 17.8189 32.6345 16.9093 33.0493 15.9081C33.4641 14.9069 33.6777 13.8338 33.6777 12.7501C33.6777 11.6663 33.4641 10.5932 33.0493 9.59202C32.6345 8.59083 32.0264 7.68119 31.2599 6.91505V6.91505Z" stroke="white" stroke-width="2" stroke-linecap="round" stroke-linejoin="round"/>
</svg>
