<svg width="77" height="75" viewBox="0 0 77 75" fill="none" xmlns="http://www.w3.org/2000/svg">
<ellipse rx="15.8006" ry="10.5831" transform="matrix(0.785956 -0.618282 0.592456 0.805603 40.3507 41.466)" fill="#C7D29F"/>
<ellipse cx="49.4974" cy="23.2418" rx="9.4154" ry="9.73791" fill="#C7D29F"/>
<path d="M62.975 23.2417L56.9447 26.8959L56.9 19.6675L62.975 23.2417Z" fill="#C7D29F"/>
<path d="M36.8904 43.6229L20.3299 68.3907L8.42584 49.9566L36.8904 43.6229Z" fill="#C7D29F"/>
<path d="M45.2935 45.5329L18.0266 34.9731L32.403 18.5319L45.2935 45.5329Z" fill="#C7D29F"/>
<path d="M14.04 19.608C17.16 19.848 19.452 20.568 20.916 21.768C22.38 22.968 23.112 24.384 23.112 26.016C23.112 28.248 22.236 29.976 20.484 31.2C18.732 32.4 16.296 33 13.176 33C12.48 33 11.892 32.988 11.412 32.964C9.828 32.916 8.28 32.892 6.768 32.892C4.296 32.892 2.448 32.928 1.224 33V32.28C2.016 32.232 2.592 32.136 2.952 31.992C3.336 31.848 3.588 31.572 3.708 31.164C3.852 30.756 3.924 30.096 3.924 29.184V11.328C3.924 10.416 3.852 9.756 3.708 9.348C3.588 8.94 3.336 8.664 2.952 8.52C2.592 8.376 2.016 8.28 1.224 8.232V7.512C2.448 7.584 4.272 7.62 6.696 7.62L10.692 7.584C11.172 7.56 11.724 7.548 12.348 7.548C15.228 7.548 17.424 8.064 18.936 9.096C20.472 10.128 21.24 11.496 21.24 13.2C21.24 14.592 20.628 15.888 19.404 17.088C18.204 18.288 16.416 19.104 14.04 19.536V19.608ZM11.88 8.232C11.232 8.232 10.752 8.316 10.44 8.484C10.152 8.652 9.948 8.952 9.828 9.384C9.708 9.816 9.648 10.464 9.648 11.328V19.464H11.196C12.756 19.464 13.848 18.936 14.472 17.88C15.096 16.8 15.408 15.372 15.408 13.596C15.408 11.796 15.12 10.452 14.544 9.564C13.992 8.676 13.104 8.232 11.88 8.232ZM12.132 32.172C15.468 32.172 17.136 30.072 17.136 25.872C17.136 23.976 16.656 22.536 15.696 21.552C14.736 20.568 13.224 20.076 11.16 20.076H9.648V29.184C9.648 30.048 9.708 30.684 9.828 31.092C9.948 31.5 10.176 31.788 10.512 31.956C10.872 32.1 11.412 32.172 12.132 32.172Z" fill="#C7D29F"/>
<path d="M59.224 34.044C60.472 34.044 61.468 34.164 62.212 34.404C62.956 34.644 63.712 34.992 64.48 35.448C64.744 35.592 64.972 35.712 65.164 35.808C65.38 35.904 65.56 35.952 65.704 35.952C65.92 35.952 66.088 35.832 66.208 35.592C66.328 35.328 66.424 34.92 66.496 34.368H67.324C67.204 35.976 67.144 38.712 67.144 42.576H66.316C66.22 41.28 65.92 40.044 65.416 38.868C64.936 37.692 64.24 36.744 63.328 36.024C62.44 35.28 61.396 34.908 60.196 34.908C59.02 34.908 58.06 35.244 57.316 35.916C56.596 36.564 56.236 37.452 56.236 38.58C56.236 39.42 56.416 40.152 56.776 40.776C57.136 41.4 57.64 41.976 58.288 42.504C58.936 43.008 59.932 43.704 61.276 44.592L62.428 45.384C63.844 46.32 64.96 47.136 65.776 47.832C66.592 48.528 67.252 49.344 67.756 50.28C68.284 51.192 68.548 52.26 68.548 53.484C68.548 55.02 68.152 56.316 67.36 57.372C66.568 58.404 65.488 59.184 64.12 59.712C62.776 60.24 61.276 60.504 59.62 60.504C58.276 60.504 57.16 60.384 56.272 60.144C55.384 59.904 54.568 59.58 53.824 59.172C53.296 58.836 52.888 58.668 52.6 58.668C52.384 58.668 52.216 58.8 52.096 59.064C51.976 59.304 51.88 59.7 51.808 60.252H50.98C51.076 58.74 51.124 55.5 51.124 50.532H51.952C52.12 53.22 52.72 55.404 53.752 57.084C54.784 58.74 56.368 59.568 58.504 59.568C59.8 59.568 60.868 59.22 61.708 58.524C62.548 57.828 62.968 56.832 62.968 55.536C62.968 54.192 62.536 53.04 61.672 52.08C60.808 51.12 59.44 50.04 57.568 48.84C56.128 47.904 54.976 47.088 54.112 46.392C53.248 45.696 52.54 44.88 51.988 43.944C51.436 42.984 51.16 41.88 51.16 40.632C51.16 39.192 51.52 37.98 52.24 36.996C52.984 35.988 53.968 35.244 55.192 34.764C56.416 34.284 57.76 34.044 59.224 34.044Z" fill="#C7D29F"/>
</svg>
