<svg width="48" height="48" viewBox="0 0 48 48" fill="none" xmlns="http://www.w3.org/2000/svg">
<path d="M6.00001 40H42C42.3519 40.0001 42.6976 39.9074 43.0022 39.7311C43.3068 39.5549 43.5595 39.3014 43.7348 38.9963C43.9101 38.6911 44.0018 38.3451 44.0006 37.9932C43.9994 37.6413 43.9054 37.2959 43.728 36.992L29.728 12.992C29.01 11.762 26.99 11.766 26.27 12.992L19.732 24.2L17.692 20.936C17.5124 20.6494 17.2629 20.4132 16.9669 20.2494C16.6709 20.0857 16.3382 19.9999 16 20H15.998C15.6591 20.0003 15.3259 20.0868 15.0296 20.2512C14.7333 20.4156 14.4836 20.6526 14.304 20.94L4.304 36.94C4.11479 37.2427 4.01006 37.5906 4.00069 37.9475C3.99132 38.3044 4.07765 38.6573 4.25072 38.9695C4.42378 39.2818 4.67728 39.542 4.98489 39.7232C5.29249 39.9044 5.64299 40 6.00001 40ZM28 17.97L38.518 36H27.11L22.138 28.026L28 17.97ZM16.002 25.77L22.394 36H9.61L16.002 25.77ZM12 16C15.308 16 18 13.308 18 10C18 6.692 15.308 4 12 4C8.692 4 6.00001 6.692 6.00001 10C6.00001 13.308 8.692 16 12 16ZM12 8C12.5304 8 13.0391 8.21071 13.4142 8.58579C13.7893 8.96086 14 9.46957 14 10C14 10.5304 13.7893 11.0391 13.4142 11.4142C13.0391 11.7893 12.5304 12 12 12C11.4696 12 10.9609 11.7893 10.5858 11.4142C10.2107 11.0391 10 10.5304 10 10C10 9.46957 10.2107 8.96086 10.5858 8.58579C10.9609 8.21071 11.4696 8 12 8Z" fill="white"/>
</svg>
