<svg width="25" height="14" viewBox="0 0 25 14" fill="none" xmlns="http://www.w3.org/2000/svg">
<path d="M11.3513 6.00808L1.92647 0.138358C1.64784 -0.0256117 1.30186 0.00170644 1.04056 0.00170644C-0.00463629 0.00170644 3.44744e-07 0.79936 3.44744e-07 1.00144V12.9985C3.44744e-07 13.1694 -0.00457525 13.9983 1.04056 13.9983C1.30186 13.9983 1.6479 14.0255 1.92647 13.8616L11.3513 7.99194C12.1248 7.53693 11.9912 6.99998 11.9912 6.99998C11.9912 6.99998 12.1249 6.46302 11.3513 6.00808Z" fill="#2B8DC0"/>
<path d="M23.3513 6.00808L13.9265 0.138358C13.6478 -0.0256117 13.3019 0.00170644 13.0406 0.00170644C11.9954 0.00170644 12 0.79936 12 1.00144V12.9985C12 13.1694 11.9954 13.9983 13.0406 13.9983C13.3019 13.9983 13.6479 14.0255 13.9265 13.8616L23.3513 7.99194C24.1248 7.53693 23.9912 6.99998 23.9912 6.99998C23.9912 6.99998 24.1249 6.46302 23.3513 6.00808Z" fill="#2B8DC0"/>
</svg>
