<svg width="24" height="21" viewBox="0 0 24 21" fill="none" xmlns="http://www.w3.org/2000/svg">
<path d="M23 2C22.0424 2.67548 20.9821 3.19211 19.86 3.53C19.2577 2.83751 18.4573 2.34669 17.567 2.12393C16.6767 1.90116 15.7395 1.9572 14.8821 2.28445C14.0247 2.61171 13.2884 3.1944 12.773 3.95372C12.2575 4.71303 11.9877 5.61234 12 6.53V7.53C10.2426 7.57557 8.50127 7.18581 6.93101 6.39545C5.36074 5.60508 4.01032 4.43864 3 3C3 3 -1 12 8 16C5.94053 17.398 3.48716 18.0989 1 18C10 23 21 18 21 6.5C20.9991 6.22145 20.9723 5.94359 20.92 5.67C21.9406 4.66349 22.6608 3.39271 23 2Z" stroke="#111111" stroke-width="2" stroke-linecap="round" stroke-linejoin="round"/>
</svg>
